<svg xmlns:xlink="http://www.w3.org/1999/xlink" width="113" height="113" viewBox="0 0 113 113" fill="none" xmlns="http://www.w3.org/2000/svg"><title id="inline-marketing/logos/allbirds-title">Allbirds logo</title>
<path d="M62.7562 48.0423C62.8082 48.0423 62.8948 48.0423 62.9468 48.025C63.9347 47.921 64.8186 47.1065 64.9746 46.1012C65.1305 45.1134 64.4893 44.2815 63.5361 44.1775C63.4841 44.1775 63.3974 44.1601 63.3454 44.1601C63.2934 44.1601 63.2068 44.1601 63.1548 44.1775C62.1669 44.2815 61.283 45.096 61.127 46.1012C61.0577 46.6212 61.179 47.0891 61.4736 47.4531C61.7683 47.817 62.2016 48.0423 62.7562 48.0423ZM107.852 64.1431C107.852 61.5088 106.57 59.0997 105.426 56.968C104.455 55.1482 103.589 53.5017 103.814 52.2712C103.987 51.3873 104.611 50.8847 105.582 50.8154C105.616 50.8154 105.634 50.798 105.668 50.798C105.72 50.7807 105.755 50.746 105.807 50.7287C105.859 50.694 105.876 50.6594 105.894 50.6074C105.894 50.59 105.911 50.59 105.911 50.5727L106.396 49.3249C106.448 49.1862 106.448 49.0996 106.414 49.0129C106.379 48.9609 106.344 48.8916 106.258 48.8396C106.171 48.7703 106.015 48.7009 105.824 48.6489C105.547 48.5623 105.218 48.493 104.889 48.493C103.485 48.493 101.752 48.9609 100.261 52.6871C100.209 52.8431 97.3147 60.3302 97.2281 60.5729C96.8641 61.4568 96.1016 62.514 94.4897 62.514C93.7792 62.514 93.2246 62.2367 92.8953 61.8034C92.8433 61.7167 92.7913 61.6301 92.7393 61.5261C92.618 61.2315 92.566 60.8675 92.6526 60.4689C92.6873 60.3302 92.7046 60.1916 92.7566 60.0356C92.8259 59.7756 92.9299 59.4983 93.0512 59.2037C94.1604 56.3787 98.0947 46.2919 99.3078 43.1896C99.4638 42.8083 99.2559 42.479 98.8226 42.479H97.4361C97.2801 42.479 97.1241 42.531 96.9854 42.6003C96.7255 42.7216 96.5175 42.9469 96.4135 43.1896C95.8762 44.5588 95.1137 46.5345 94.2991 48.6143C93.6752 50.2088 93.0339 51.8726 92.4273 53.3977C92.254 53.1031 92.046 52.8085 91.8207 52.5485C91.5781 52.2712 91.3181 52.0285 91.0581 51.8032C89.8969 50.85 88.4065 50.3127 86.7773 50.3127C84.7669 50.3127 82.8431 51.1273 81.318 52.4445C81.266 52.4965 81.214 52.5485 81.1447 52.6005C81.0927 52.6351 81.0753 52.6698 81.0233 52.7045C80.0354 53.6404 79.2555 54.7842 78.7703 56.0667C78.7703 56.0841 78.7529 56.1014 78.7529 56.1187C78.7009 56.292 78.6489 56.448 78.5796 56.6213C78.493 56.9333 78.4063 57.2453 78.3716 57.5746C78.3197 57.8692 78.3023 58.1812 78.285 58.4758C78.2503 59.3423 78.389 60.1916 78.6663 60.9715C78.5276 61.1968 78.3543 61.4048 78.1637 61.5954C77.6091 62.1154 76.8812 62.462 76.1186 62.5313C76.0493 62.5313 75.9799 62.5313 75.9106 62.5313C75.616 62.5313 75.3213 62.4793 75.0787 62.3753C74.7667 62.254 74.4894 62.0634 74.3161 61.8034C73.9695 61.3008 73.9695 60.5902 74.2815 59.7583C74.3508 59.5503 74.8361 58.2678 75.2693 57.1413C75.5986 56.2574 75.8933 55.4255 75.9626 55.2695C75.9973 55.1828 76.0493 55.0442 76.1012 54.8882C76.1706 54.5762 76.2226 54.143 76.0146 53.6923C75.9279 53.519 75.8239 53.3631 75.7026 53.2244C75.46 52.9644 75.148 52.8258 74.8534 52.7045C74.7321 52.6525 74.6108 52.6178 74.4894 52.5831C74.2815 52.5312 74.0562 52.4272 73.7962 52.3232C73.7789 52.3232 73.7789 52.3058 73.7615 52.3058C73.3456 52.1325 71.3178 51.1793 71.3178 49.3769C71.3178 49.3249 71.3178 49.2902 71.3178 49.2555C71.3178 49.2382 71.3178 49.2209 71.3178 49.2035C71.3178 49.1862 71.3178 49.1516 71.3178 49.1516C71.2831 48.8743 71.1965 48.7183 71.0752 48.6316C71.0578 48.6316 71.0578 48.6143 71.0405 48.6143C71.0405 48.6143 71.0405 48.6143 71.0232 48.6143C71.0058 48.5969 70.9885 48.5969 70.9712 48.5796C70.9712 48.5796 70.9712 48.5796 70.9539 48.5796C70.9539 48.5796 70.9539 48.5796 70.9365 48.5796C70.9192 48.5796 70.9192 48.5623 70.9019 48.5623C70.8325 48.5276 70.7459 48.5103 70.6592 48.5103H69.2727C68.9954 48.5103 68.6661 48.6663 68.4581 48.8916C68.3715 48.9782 68.2848 49.0996 68.2502 49.2209C67.9555 49.9835 67.5916 50.902 67.2103 51.8726C65.8931 55.2522 64.316 59.325 63.8654 60.4689C63.848 60.5209 63.8307 60.5555 63.8134 60.6075C63.4494 61.4914 62.6868 62.5486 61.0577 62.5486C60.3471 62.5486 59.7752 62.2713 59.4632 61.8381C59.2899 61.5608 59.1859 61.2315 59.2032 60.8155C59.2206 60.5035 59.2899 60.1569 59.4285 59.793C59.7058 59.0477 60.3298 57.4879 60.971 55.8414C61.5776 54.2643 62.2362 52.5831 62.6868 51.4566C62.8428 51.0753 62.6348 50.746 62.2016 50.746H60.8151H60.6764C60.5897 50.746 60.4858 50.7634 60.3818 50.798C60.3644 50.798 60.3644 50.798 60.3471 50.798C60.0178 50.8847 59.6885 51.11 59.4979 51.3526C58.7873 52.2192 57.8514 52.9298 56.8289 53.4324C55.8063 53.935 54.7144 54.2643 53.6746 54.3856C53.5186 54.0043 53.3279 53.6057 53.0853 53.2417C53.068 53.2244 53.068 53.2071 53.0506 53.1897C52.8947 52.9644 52.756 52.7565 52.5654 52.5485C51.3175 51.11 49.5324 50.3127 47.522 50.3127C46.4474 50.3127 45.3902 50.5554 44.4023 50.9713C44.9049 49.7062 45.3902 48.4063 45.8582 47.1931C46.4301 45.7026 46.9674 44.3335 47.4006 43.1896C47.47 43.0163 47.4526 42.8603 47.4006 42.7216C47.3313 42.5657 47.158 42.479 46.9327 42.479H46.9674H45.5809C45.4075 42.479 45.2342 42.531 45.0782 42.635C44.8876 42.739 44.7143 42.895 44.6276 43.0683C44.6103 43.1203 44.5756 43.1376 44.5756 43.1896C42.7905 47.7304 39.9482 55.0789 38.5963 58.6144C38.2151 59.5677 37.9724 60.2609 37.8684 60.5209C37.5045 61.4048 36.7419 62.462 35.1301 62.462C34.9741 62.462 34.8528 62.4447 34.7315 62.4273C34.2289 62.3407 33.7956 62.1154 33.5529 61.7341C33.5009 61.6647 33.4663 61.5781 33.4143 61.4914C33.2756 61.1968 33.241 60.8155 33.3103 60.4169C33.345 60.2262 33.449 59.9143 33.5703 59.585C33.7436 59.1344 33.8996 58.7011 33.8996 58.7011C33.8996 58.7011 34.5062 57.1759 35.3554 54.9575C35.4421 54.7149 35.546 54.4549 35.65 54.195C35.6674 54.1603 35.6847 54.143 35.6847 54.1083C37.0019 50.7287 38.7697 46.1532 40.0522 42.8603C40.5548 41.5258 40.9881 40.3992 41.3 39.654C41.456 39.2727 41.248 38.9434 40.8148 38.9434H39.4282C39.0123 38.9434 38.5617 39.2554 38.4057 39.654C38.2324 40.07 36.7766 43.8828 35.1301 48.129C32.9983 53.6057 30.5893 59.845 30.3293 60.5209C30.2773 60.6595 30.208 60.7982 30.1387 60.9195C29.9134 61.3528 29.5667 61.7687 29.0815 62.0807C28.7002 62.3233 28.1802 62.462 27.5736 62.4793C27.0017 62.4793 26.5164 62.306 26.1871 61.994C26.1178 61.9247 26.0312 61.8381 25.9618 61.7514C25.7365 61.4048 25.6499 60.9715 25.7365 60.4689V60.4515C25.8059 60.0183 26.3951 58.4931 26.3951 58.4584C26.7764 57.5052 27.2097 56.3614 27.6603 55.1482C29.2028 51.1793 31.0919 46.2572 32.3051 43.1549C32.3398 43.0683 32.3571 42.9816 32.3571 42.8776C32.3398 42.7563 32.3051 42.635 32.2011 42.5657C32.1144 42.4963 31.9931 42.4443 31.8198 42.4443H30.4333C30.2773 42.4443 30.1213 42.4963 29.9654 42.5657C29.7574 42.6696 29.5841 42.843 29.4628 43.0336C29.4454 43.0683 29.4108 43.1029 29.4108 43.1376C29.0468 44.0562 28.6655 45.0787 28.2496 46.1532C27.799 47.3144 27.3137 48.5623 26.8284 49.8101C24.9046 54.7496 23.0155 59.7063 22.6862 60.5035C22.5822 60.7635 22.4436 61.0062 22.2876 61.2661C21.837 61.9074 21.1264 62.4446 19.9306 62.4446C19.4973 62.4446 19.0987 62.3407 18.7867 62.1673C18.6134 62.046 18.4401 61.9074 18.3361 61.7341C18.2667 61.6127 18.1974 61.4914 18.1628 61.3528C18.0761 61.0755 18.0588 60.7635 18.1108 60.4169C18.1801 60.0009 18.6134 58.9091 18.6827 58.7358C18.6827 58.7184 18.7 58.7011 18.7 58.7011L21.5597 51.3353C21.7157 50.954 21.5077 50.6247 21.0744 50.6247H19.6879C19.4279 50.6247 19.168 50.746 18.96 50.9193C18.9427 50.9193 18.9427 50.9367 18.9427 50.9367C18.8213 51.0407 18.7347 51.1793 18.6827 51.318L18.3707 52.1672L17.9201 53.3284C17.8335 53.1897 17.7468 53.0511 17.6428 52.9298C17.5562 52.7911 17.4522 52.6698 17.3482 52.5485C16.8976 52.0285 16.3603 51.5779 15.771 51.2313C14.7658 50.6247 13.5873 50.3127 12.3048 50.3127C9.16782 50.3127 6.20417 52.2885 4.74835 55.0788C4.34973 55.8588 4.05509 56.6907 3.91644 57.5572C3.60448 59.6023 4.12442 61.5261 5.3896 62.9819C5.77089 63.4325 6.2215 63.8138 6.70678 64.1431C6.79344 64.1951 6.89742 64.2644 7.00141 64.3164C8.00663 64.9057 9.16782 65.2177 10.433 65.2177C12.4608 65.2177 14.4192 64.3858 15.9444 63.0512C15.9963 63.1379 16.0483 63.2246 16.1177 63.3285C16.1523 63.3805 16.187 63.4325 16.2217 63.4845C16.2217 63.5019 16.239 63.5019 16.239 63.5192C16.2737 63.5712 16.3083 63.6058 16.343 63.6578C16.3776 63.6925 16.395 63.7098 16.4123 63.7445C16.4296 63.7792 16.4643 63.7965 16.4816 63.8138C16.5336 63.8658 16.5683 63.9005 16.6029 63.9525C16.6203 63.9698 16.6376 63.9871 16.6549 64.0045C16.7069 64.0565 16.7589 64.1085 16.8283 64.1604C16.8283 64.1604 16.8283 64.1604 16.8456 64.1778C17.3482 64.6111 18.0068 64.9577 18.752 65.131C18.7694 65.131 18.7867 65.1483 18.804 65.1483C18.8733 65.1657 18.96 65.183 19.0293 65.2003C19.064 65.2003 19.0813 65.2177 19.1333 65.2177C19.1853 65.235 19.2546 65.235 19.324 65.2523C19.376 65.2523 19.4279 65.2696 19.4973 65.2696C19.5493 65.2696 19.5839 65.287 19.6533 65.287C19.7572 65.287 19.8612 65.3043 19.9825 65.3043C20.7625 65.3043 21.4904 65.1483 22.1663 64.871C22.4263 64.767 22.6689 64.6457 22.8769 64.4897C22.9462 64.4377 23.0329 64.4031 23.1022 64.3338C23.3968 64.1258 23.6914 63.9005 23.9341 63.6232C24.0207 63.7445 24.1247 63.8485 24.2287 63.9525C24.922 64.6631 25.8405 65.0963 26.9151 65.2177C26.9497 65.2177 26.9844 65.235 27.019 65.235C27.0537 65.235 27.071 65.235 27.1057 65.235C27.1577 65.235 27.227 65.2523 27.279 65.2523C27.3137 65.2523 27.331 65.2523 27.3483 65.2523C27.4003 65.2523 27.487 65.2523 27.539 65.2523C29.0988 65.2523 30.468 64.6631 31.4905 63.6232C31.8718 64.1085 32.3744 64.4897 32.9463 64.7844C33.5876 65.0963 34.3329 65.2696 35.0954 65.2696C35.494 65.2696 35.8927 65.2177 36.2566 65.1483C37.8858 64.819 39.2376 63.7792 40.0695 62.2193C40.1215 62.2887 40.1562 62.358 40.2082 62.4273C40.2602 62.514 40.3295 62.6006 40.3815 62.7046C40.4681 62.8259 40.5548 62.9299 40.6588 63.0512C41.9066 64.4897 43.6917 65.287 45.7022 65.287C48.4578 65.287 51.0922 63.7445 52.6693 61.4914C53.3799 60.4515 53.8825 59.2904 54.0732 58.0425C54.1252 57.7305 54.1425 57.4186 54.1598 57.1066C54.4371 57.0719 54.6971 57.0373 54.9571 56.968C56.1183 56.7427 57.1928 56.3614 58.146 55.8588C58.1114 55.9281 58.094 56.0321 58.0594 56.1014C57.6088 57.2799 57.2101 58.3025 57.0022 58.8571C56.3436 60.5209 56.4476 62.1327 57.2968 63.3979C57.6088 63.8658 58.0074 64.2471 58.4753 64.5591C59.2206 65.0443 60.1218 65.3043 61.1097 65.3043C63.4841 65.3043 65.4598 63.9351 66.3784 61.6301C66.4997 61.3354 66.7424 60.6942 67.0543 59.8796C67.7129 58.1812 68.7008 55.6335 69.602 53.3284C69.6713 53.1204 69.7753 52.9124 69.8447 52.7218C70.6246 53.6923 71.6644 54.4376 72.687 54.8709C72.739 54.9055 72.791 54.9229 72.8603 54.9402C72.9816 54.9922 73.1029 55.0269 73.2069 55.0788C72.7043 56.4654 71.8897 58.6491 71.7858 58.8917C71.3871 59.9316 71.2658 60.9368 71.4391 61.8381C71.5431 62.41 71.7684 62.9473 72.0804 63.4325C72.2884 63.7272 72.531 64.0045 72.791 64.2471C73.5362 64.8884 74.5068 65.287 75.5986 65.339C75.7026 65.339 75.7893 65.3563 75.8933 65.3563C76.0666 65.3563 76.2226 65.339 76.3959 65.3216C76.4305 65.3216 76.4652 65.3216 76.4999 65.3043C76.5172 65.3043 76.5345 65.3043 76.5519 65.3043C77.2451 65.235 77.9037 65.027 78.5103 64.715C79.1342 64.4031 79.7062 63.9871 80.1914 63.4845C81.1273 64.4204 82.3405 65.0097 83.7097 65.235C84.091 65.287 84.4723 65.3216 84.8709 65.3216C85.3735 65.3216 85.8934 65.2696 86.3787 65.1657C87.7479 64.8884 89.0304 64.2471 90.1049 63.3632C90.2089 63.2939 90.2956 63.1899 90.3822 63.1032C90.4342 63.2072 90.5035 63.3112 90.5555 63.3979C91.0755 64.1604 91.8207 64.715 92.7046 65.027C92.7566 65.0443 92.7913 65.0617 92.8259 65.079C92.8779 65.0963 92.9299 65.1137 92.9819 65.131C93.0339 65.1483 93.0859 65.1657 93.1552 65.183C93.2072 65.2003 93.2419 65.2003 93.2939 65.2177C93.3459 65.235 93.3979 65.2523 93.4672 65.2523C93.5192 65.2696 93.5539 65.2697 93.6058 65.287C93.6578 65.3043 93.7098 65.3043 93.7792 65.3043C93.8312 65.3043 93.9005 65.3216 93.9525 65.3216C94.0045 65.3216 94.0391 65.339 94.0911 65.339C94.1951 65.339 94.2991 65.3563 94.4204 65.3563C96.7948 65.3563 98.7706 63.9871 99.6891 61.6821C99.7411 61.5434 100.608 59.377 101.301 57.5746C101.509 57.0373 101.7 56.5173 101.856 56.1187C101.925 56.292 102.029 56.4654 102.098 56.6213C102.375 57.1933 102.687 57.7825 102.999 58.3718C103.259 58.8571 103.519 59.3423 103.762 59.845C104.49 61.3181 105.114 62.8086 105.114 64.2818C105.114 68.6146 102.185 69.3772 101.284 69.5158C100.677 69.6025 100.226 70.0704 100.14 70.6423C100.122 70.781 100.105 70.9196 100.14 71.041C100.14 71.093 100.157 71.1276 100.174 71.1623C100.33 71.7689 100.868 72.2022 101.474 72.2022C101.509 72.2022 101.526 72.2022 101.578 72.2022C101.613 72.2022 101.63 72.2022 101.682 72.2022C102.393 72.0982 103.138 71.8729 103.831 71.5262C105.963 70.2957 107.852 68.008 107.852 64.1431ZM90.5902 57.5572C90.3302 59.325 89.2037 60.8848 87.7479 61.7687C87.7305 61.7861 87.6959 61.8034 87.6959 61.8034C87.6959 61.8034 87.6785 61.8034 87.6785 61.8207C86.8986 62.2713 86.0321 62.5313 85.1308 62.5313C84.7149 62.5313 84.2989 62.4793 83.935 62.358C83.2764 62.15 82.6871 61.7687 82.2539 61.2488C81.8206 60.7288 81.5433 60.0876 81.4393 59.3597V59.3423C81.3873 58.9091 81.3873 58.4585 81.4566 57.9905C81.5606 57.2973 81.7859 56.6387 82.1325 56.0494C82.5831 55.2348 83.2071 54.5589 83.9523 54.0216C84.8362 53.415 85.8761 53.0338 86.9333 53.0338C87.6439 53.0338 88.3198 53.2071 88.8744 53.5364C89.2384 53.7443 89.5503 54.0216 89.8103 54.3336C89.9489 54.5069 90.0703 54.6629 90.1569 54.8362C90.5035 55.4428 90.6595 56.1361 90.6595 56.8813C90.6422 57.0893 90.6249 57.3146 90.5902 57.5572ZM44.5236 62.3753C43.7957 62.1847 43.1545 61.7861 42.7039 61.2141C41.9933 60.3649 41.716 59.2037 41.8893 57.9558V57.9385C41.9413 57.6265 42.0106 57.3493 42.0799 57.1239C42.1839 56.8466 42.2879 56.5693 42.4092 56.292C42.4266 56.24 42.4612 56.2227 42.4612 56.1707C42.5132 56.1014 42.5305 56.0147 42.5825 55.9454C42.5999 55.9108 42.6172 55.8934 42.6345 55.8761C42.9638 55.3215 43.3624 54.8189 43.8304 54.4029C44.8183 53.5364 46.0661 52.9991 47.3486 52.9991C47.9379 52.9991 48.4925 53.1204 48.9605 53.3284C49.4631 53.5537 49.879 53.8657 50.2256 54.2816C50.9362 55.1308 51.2135 56.292 51.0402 57.5399C50.6416 60.2609 48.1805 62.4966 45.5635 62.4966C45.1822 62.514 44.8529 62.4793 44.5236 62.3753ZM10.6063 62.514C9.42779 62.514 8.40525 62.046 7.712 61.2315C7.64267 61.1448 7.57335 61.0581 7.52135 60.9542C6.94942 60.1223 6.74144 59.0824 6.91476 57.9558C7.31338 55.2348 9.79175 52.9991 12.4261 52.9991C13.6046 52.9991 14.6272 53.467 15.3204 54.2816C16.031 55.1308 16.3256 56.292 16.135 57.5399C16.1003 57.7479 16.0657 57.9558 15.9963 58.1638C15.3378 60.6075 13.0327 62.514 10.6063 62.514Z" fill="#5C5F62"></path>
</svg>