<svg xmlns:xlink="http://www.w3.org/1999/xlink" width="113" height="113" viewBox="0 0 113 113" fill="none" xmlns="http://www.w3.org/2000/svg"><title id="inline-marketing/logos/coty-title">Coty logo</title>
<path fill-rule="evenodd" clip-rule="evenodd" d="M44.0117 43.7419C51.7241 43.7419 57.2874 49.4959 57.2874 56.6191C57.2874 63.7249 51.7241 69.4789 44.0117 69.4789C36.2992 69.4789 30.7532 63.7249 30.7532 56.6191C30.7359 49.4786 36.2992 43.7419 44.0117 43.7419ZM17.7894 43.7419C21.4983 43.7419 24.7739 45.1458 27.027 47.3295L23.838 50.6745C22.3475 49.184 20.1985 48.1441 17.7548 48.1441C13.058 48.1441 9.40107 51.9223 9.40107 56.6191C9.40107 61.4025 13.214 65.0941 17.9627 65.0941C20.5278 65.0941 22.5902 64.1062 24.046 62.737L27.183 66.0473C24.9126 68.1271 21.6543 69.4789 17.8587 69.4789C10.077 69.4789 4.375 63.7942 4.375 56.6191C4.375 49.4266 9.99034 43.7419 17.7894 43.7419ZM59.7831 44.3485H80.442V48.4907H72.6083V68.855H67.6342V48.4907H59.7831V44.3485ZM83.1977 44.3485H89.2117L95.8496 54.522L102.401 44.3485H108.345L98.2413 59.2534V68.8723H93.2845V59.3054L83.1977 44.3485ZM44.0117 48.1268C39.3669 48.1268 35.7793 51.957 35.7793 56.6018C35.7793 61.2465 39.3842 65.0768 44.0117 65.0768C48.6564 65.0768 52.2614 61.2465 52.2614 56.6018C52.2614 51.957 48.6564 48.1268 44.0117 48.1268Z" fill="#5C5F62"></path>
</svg>