<svg width="1208" height="200" viewBox="0 0 1208 200" fill="none" xmlns="http://www.w3.org/2000/svg">
<path fill-rule="evenodd" clip-rule="evenodd" d="M392 0H388V4H384V8H388V4H392V0Z" fill="#CEF9CB"/>
<path fill-rule="evenodd" clip-rule="evenodd" d="M392 48H388V52H384V56H388V52H392V48Z" fill="#CEF9CB"/>
<path fill-rule="evenodd" clip-rule="evenodd" d="M392 96H388V100H384V104H388V100H392V96Z" fill="#CEF9CB"/>
<path fill-rule="evenodd" clip-rule="evenodd" d="M392 144H388V148H384V152H388V148H392V144Z" fill="#CEF9CB"/>
<path fill-rule="evenodd" clip-rule="evenodd" d="M392 192H388V196H384V200H388V196H392V192Z" fill="#CEF9CB"/>
<g opacity="0.8">
<path fill-rule="evenodd" clip-rule="evenodd" d="M344 0H340V4H336V8H340V4H344V0Z" fill="#CEF9CB"/>
<path fill-rule="evenodd" clip-rule="evenodd" d="M344 48H340V52H336V56H340V52H344V48Z" fill="#CEF9CB"/>
<path fill-rule="evenodd" clip-rule="evenodd" d="M344 96H340V100H336V104H340V100H344V96Z" fill="#CEF9CB"/>
<path fill-rule="evenodd" clip-rule="evenodd" d="M344 144H340V148H336V152H340V148H344V144Z" fill="#CEF9CB"/>
<path fill-rule="evenodd" clip-rule="evenodd" d="M344 192H340V196H336V200H340V196H344V192Z" fill="#CEF9CB"/>
</g>
<g opacity="0.7">
<path fill-rule="evenodd" clip-rule="evenodd" d="M296 0H292V4H288V8H292V4H296V0Z" fill="#CEF9CB"/>
<path fill-rule="evenodd" clip-rule="evenodd" d="M296 48H292V52H288V56H292V52H296V48Z" fill="#CEF9CB"/>
<path fill-rule="evenodd" clip-rule="evenodd" d="M296 96H292V100H288V104H292V100H296V96Z" fill="#CEF9CB"/>
<path fill-rule="evenodd" clip-rule="evenodd" d="M296 144H292V148H288V152H292V148H296V144Z" fill="#CEF9CB"/>
<path fill-rule="evenodd" clip-rule="evenodd" d="M296 192H292V196H288V200H292V196H296V192Z" fill="#CEF9CB"/>
</g>
<g opacity="0.5">
<path fill-rule="evenodd" clip-rule="evenodd" d="M248 0H244V4H240V8H244V4H248V0Z" fill="#CEF9CB"/>
<path fill-rule="evenodd" clip-rule="evenodd" d="M248 48H244V52H240V56H244V52H248V48Z" fill="#CEF9CB"/>
<path fill-rule="evenodd" clip-rule="evenodd" d="M248 96H244V100H240V104H244V100H248V96Z" fill="#CEF9CB"/>
<path fill-rule="evenodd" clip-rule="evenodd" d="M248 144H244V148H240V152H244V148H248V144Z" fill="#CEF9CB"/>
<path fill-rule="evenodd" clip-rule="evenodd" d="M248 192H244V196H240V200H244V196H248V192Z" fill="#CEF9CB"/>
</g>
<g opacity="0.4">
<path fill-rule="evenodd" clip-rule="evenodd" d="M200 0H196V4H192V8H196V4H200V0Z" fill="#CEF9CB"/>
<path fill-rule="evenodd" clip-rule="evenodd" d="M200 48H196V52H192V56H196V52H200V48Z" fill="#CEF9CB"/>
<path fill-rule="evenodd" clip-rule="evenodd" d="M200 96H196V100H192V104H196V100H200V96Z" fill="#CEF9CB"/>
<path fill-rule="evenodd" clip-rule="evenodd" d="M200 144H196V148H192V152H196V148H200V144Z" fill="#CEF9CB"/>
<path fill-rule="evenodd" clip-rule="evenodd" d="M200 192H196V196H192V200H196V196H200V192Z" fill="#CEF9CB"/>
</g>
<g opacity="0.4">
<path fill-rule="evenodd" clip-rule="evenodd" d="M152 0H148V4H144V8H148V4H152V0Z" fill="#CEF9CB"/>
<path fill-rule="evenodd" clip-rule="evenodd" d="M152 48H148V52H144V56H148V52H152V48Z" fill="#CEF9CB"/>
<path fill-rule="evenodd" clip-rule="evenodd" d="M152 96H148V100H144V104H148V100H152V96Z" fill="#CEF9CB"/>
<path fill-rule="evenodd" clip-rule="evenodd" d="M152 144H148V148H144V152H148V148H152V144Z" fill="#CEF9CB"/>
<path fill-rule="evenodd" clip-rule="evenodd" d="M152 192H148V196H144V200H148V196H152V192Z" fill="#CEF9CB"/>
</g>
<g opacity="0.3">
<path fill-rule="evenodd" clip-rule="evenodd" d="M104 0H100V4H96V8H100V4H104V0Z" fill="#CEF9CB"/>
<path fill-rule="evenodd" clip-rule="evenodd" d="M104 48H100V52H96V56H100V52H104V48Z" fill="#CEF9CB"/>
<path fill-rule="evenodd" clip-rule="evenodd" d="M104 96H100V100H96V104H100V100H104V96Z" fill="#CEF9CB"/>
<path fill-rule="evenodd" clip-rule="evenodd" d="M104 144H100V148H96V152H100V148H104V144Z" fill="#CEF9CB"/>
<path fill-rule="evenodd" clip-rule="evenodd" d="M104 192H100V196H96V200H100V196H104V192Z" fill="#CEF9CB"/>
</g>
<g opacity="0.2">
<path fill-rule="evenodd" clip-rule="evenodd" d="M56 0H52V4H48V8H52V4H56V0Z" fill="#CEF9CB"/>
<path fill-rule="evenodd" clip-rule="evenodd" d="M56 48H52V52H48V56H52V52H56V48Z" fill="#CEF9CB"/>
<path fill-rule="evenodd" clip-rule="evenodd" d="M56 96H52V100H48V104H52V100H56V96Z" fill="#CEF9CB"/>
<path fill-rule="evenodd" clip-rule="evenodd" d="M56 144H52V148H48V152H52V148H56V144Z" fill="#CEF9CB"/>
<path fill-rule="evenodd" clip-rule="evenodd" d="M56 192H52V196H48V200H52V196H56V192Z" fill="#CEF9CB"/>
</g>
<g opacity="0.2">
<path fill-rule="evenodd" clip-rule="evenodd" d="M8 0H4V4H0V8H4V4H8V0Z" fill="#CEF9CB"/>
<path fill-rule="evenodd" clip-rule="evenodd" d="M8 48H4V52H0V56H4V52H8V48Z" fill="#CEF9CB"/>
<path fill-rule="evenodd" clip-rule="evenodd" d="M8 96H4V100H0V104H4V100H8V96Z" fill="#CEF9CB"/>
<path fill-rule="evenodd" clip-rule="evenodd" d="M8 144H4V148H0V152H4V148H8V144Z" fill="#CEF9CB"/>
<path fill-rule="evenodd" clip-rule="evenodd" d="M8 192H4V196H0V200H4V196H8V192Z" fill="#CEF9CB"/>
</g>
<path fill-rule="evenodd" clip-rule="evenodd" d="M440 0H436V4H432V8H436V4H440V0Z" fill="#CEF9CB"/>
<path fill-rule="evenodd" clip-rule="evenodd" d="M440 48H436V52H432V56H436V52H440V48Z" fill="#CEF9CB"/>
<path fill-rule="evenodd" clip-rule="evenodd" d="M440 96H436V100H432V104H436V100H440V96Z" fill="#CEF9CB"/>
<path fill-rule="evenodd" clip-rule="evenodd" d="M440 144H436V148H432V152H436V148H440V144Z" fill="#CEF9CB"/>
<path fill-rule="evenodd" clip-rule="evenodd" d="M440 192H436V196H432V200H436V196H440V192Z" fill="#CEF9CB"/>
<path fill-rule="evenodd" clip-rule="evenodd" d="M488 0H484V4H480V8H484V4H488V0Z" fill="#CEF9CB"/>
<path fill-rule="evenodd" clip-rule="evenodd" d="M488 48H484V52H480V56H484V52H488V48Z" fill="#CEF9CB"/>
<path fill-rule="evenodd" clip-rule="evenodd" d="M488 96H484V100H480V104H484V100H488V96Z" fill="#CEF9CB"/>
<path fill-rule="evenodd" clip-rule="evenodd" d="M488 144H484V148H480V152H484V148H488V144Z" fill="#CEF9CB"/>
<path fill-rule="evenodd" clip-rule="evenodd" d="M488 192H484V196H480V200H484V196H488V192Z" fill="#CEF9CB"/>
<path fill-rule="evenodd" clip-rule="evenodd" d="M536 0H532V4H528V8H532V4H536V0Z" fill="#CEF9CB"/>
<path fill-rule="evenodd" clip-rule="evenodd" d="M536 48H532V52H528V56H532V52H536V48Z" fill="#CEF9CB"/>
<path fill-rule="evenodd" clip-rule="evenodd" d="M536 96H532V100H528V104H532V100H536V96Z" fill="#CEF9CB"/>
<path fill-rule="evenodd" clip-rule="evenodd" d="M536 144H532V148H528V152H532V148H536V144Z" fill="#CEF9CB"/>
<path fill-rule="evenodd" clip-rule="evenodd" d="M536 192H532V196H528V200H532V196H536V192Z" fill="#CEF9CB"/>
<path fill-rule="evenodd" clip-rule="evenodd" d="M584 0H580V4H576V8H580V4H584V0Z" fill="#CEF9CB"/>
<path fill-rule="evenodd" clip-rule="evenodd" d="M584 48H580V52H576V56H580V52H584V48Z" fill="#CEF9CB"/>
<path fill-rule="evenodd" clip-rule="evenodd" d="M584 96H580V100H576V104H580V100H584V96Z" fill="#CEF9CB"/>
<path fill-rule="evenodd" clip-rule="evenodd" d="M584 144H580V148H576V152H580V148H584V144Z" fill="#CEF9CB"/>
<path fill-rule="evenodd" clip-rule="evenodd" d="M584 192H580V196H576V200H580V196H584V192Z" fill="#CEF9CB"/>
<path fill-rule="evenodd" clip-rule="evenodd" d="M632 0H628V4H624V8H628V4H632V0Z" fill="#CEF9CB"/>
<path fill-rule="evenodd" clip-rule="evenodd" d="M632 48H628V52H624V56H628V52H632V48Z" fill="#CEF9CB"/>
<path fill-rule="evenodd" clip-rule="evenodd" d="M632 96H628V100H624V104H628V100H632V96Z" fill="#CEF9CB"/>
<path fill-rule="evenodd" clip-rule="evenodd" d="M632 144H628V148H624V152H628V148H632V144Z" fill="#CEF9CB"/>
<path fill-rule="evenodd" clip-rule="evenodd" d="M632 192H628V196H624V200H628V196H632V192Z" fill="#CEF9CB"/>
<path fill-rule="evenodd" clip-rule="evenodd" d="M680 0H676V4H672V8H676V4H680V0Z" fill="#CEF9CB"/>
<path fill-rule="evenodd" clip-rule="evenodd" d="M680 48H676V52H672V56H676V52H680V48Z" fill="#CEF9CB"/>
<path fill-rule="evenodd" clip-rule="evenodd" d="M680 96H676V100H672V104H676V100H680V96Z" fill="#CEF9CB"/>
<path fill-rule="evenodd" clip-rule="evenodd" d="M680 144H676V148H672V152H676V148H680V144Z" fill="#CEF9CB"/>
<path fill-rule="evenodd" clip-rule="evenodd" d="M680 192H676V196H672V200H676V196H680V192Z" fill="#CEF9CB"/>
<path fill-rule="evenodd" clip-rule="evenodd" d="M728 0H724V4H720V8H724V4H728V0Z" fill="#CEF9CB"/>
<path fill-rule="evenodd" clip-rule="evenodd" d="M728 48H724V52H720V56H724V52H728V48Z" fill="#CEF9CB"/>
<path fill-rule="evenodd" clip-rule="evenodd" d="M728 96H724V100H720V104H724V100H728V96Z" fill="#CEF9CB"/>
<path fill-rule="evenodd" clip-rule="evenodd" d="M728 144H724V148H720V152H724V148H728V144Z" fill="#CEF9CB"/>
<path fill-rule="evenodd" clip-rule="evenodd" d="M728 192H724V196H720V200H724V196H728V192Z" fill="#CEF9CB"/>
<path fill-rule="evenodd" clip-rule="evenodd" d="M776 0H772V4H768V8H772V4H776V0Z" fill="#CEF9CB"/>
<path fill-rule="evenodd" clip-rule="evenodd" d="M776 48H772V52H768V56H772V52H776V48Z" fill="#CEF9CB"/>
<path fill-rule="evenodd" clip-rule="evenodd" d="M776 96H772V100H768V104H772V100H776V96Z" fill="#CEF9CB"/>
<path fill-rule="evenodd" clip-rule="evenodd" d="M776 144H772V148H768V152H772V148H776V144Z" fill="#CEF9CB"/>
<path fill-rule="evenodd" clip-rule="evenodd" d="M776 192H772V196H768V200H772V196H776V192Z" fill="#CEF9CB"/>
<path fill-rule="evenodd" clip-rule="evenodd" d="M824 0H820V4H816V8H820V4H824V0Z" fill="#CEF9CB"/>
<path fill-rule="evenodd" clip-rule="evenodd" d="M824 48H820V52H816V56H820V52H824V48Z" fill="#CEF9CB"/>
<path fill-rule="evenodd" clip-rule="evenodd" d="M824 96H820V100H816V104H820V100H824V96Z" fill="#CEF9CB"/>
<path fill-rule="evenodd" clip-rule="evenodd" d="M824 144H820V148H816V152H820V148H824V144Z" fill="#CEF9CB"/>
<path fill-rule="evenodd" clip-rule="evenodd" d="M824 192H820V196H816V200H820V196H824V192Z" fill="#CEF9CB"/>
<path fill-rule="evenodd" clip-rule="evenodd" d="M872 0H868V4H864V8H868V4H872V0Z" fill="#CEF9CB"/>
<path fill-rule="evenodd" clip-rule="evenodd" d="M872 48H868V52H864V56H868V52H872V48Z" fill="#CEF9CB"/>
<path fill-rule="evenodd" clip-rule="evenodd" d="M872 96H868V100H864V104H868V100H872V96Z" fill="#CEF9CB"/>
<path fill-rule="evenodd" clip-rule="evenodd" d="M872 144H868V148H864V152H868V148H872V144Z" fill="#CEF9CB"/>
<path fill-rule="evenodd" clip-rule="evenodd" d="M872 192H868V196H864V200H868V196H872V192Z" fill="#CEF9CB"/>
<path fill-rule="evenodd" clip-rule="evenodd" d="M920 0H916V4H912V8H916V4H920V0Z" fill="#CEF9CB"/>
<path fill-rule="evenodd" clip-rule="evenodd" d="M920 48H916V52H912V56H916V52H920V48Z" fill="#CEF9CB"/>
<path fill-rule="evenodd" clip-rule="evenodd" d="M920 96H916V100H912V104H916V100H920V96Z" fill="#CEF9CB"/>
<path fill-rule="evenodd" clip-rule="evenodd" d="M920 144H916V148H912V152H916V148H920V144Z" fill="#CEF9CB"/>
<path fill-rule="evenodd" clip-rule="evenodd" d="M920 192H916V196H912V200H916V196H920V192Z" fill="#CEF9CB"/>
<path fill-rule="evenodd" clip-rule="evenodd" d="M968 0H964V4H960V8H964V4H968V0Z" fill="#CEF9CB"/>
<path fill-rule="evenodd" clip-rule="evenodd" d="M968 48H964V52H960V56H964V52H968V48Z" fill="#CEF9CB"/>
<path fill-rule="evenodd" clip-rule="evenodd" d="M968 96H964V100H960V104H964V100H968V96Z" fill="#CEF9CB"/>
<path fill-rule="evenodd" clip-rule="evenodd" d="M968 144H964V148H960V152H964V148H968V144Z" fill="#CEF9CB"/>
<path fill-rule="evenodd" clip-rule="evenodd" d="M968 192H964V196H960V200H964V196H968V192Z" fill="#CEF9CB"/>
<path fill-rule="evenodd" clip-rule="evenodd" d="M1016 0H1012V4H1008V8H1012V4H1016V0Z" fill="#CEF9CB"/>
<path fill-rule="evenodd" clip-rule="evenodd" d="M1016 48H1012V52H1008V56H1012V52H1016V48Z" fill="#CEF9CB"/>
<path fill-rule="evenodd" clip-rule="evenodd" d="M1016 96H1012V100H1008V104H1012V100H1016V96Z" fill="#CEF9CB"/>
<path fill-rule="evenodd" clip-rule="evenodd" d="M1016 144H1012V148H1008V152H1012V148H1016V144Z" fill="#CEF9CB"/>
<path fill-rule="evenodd" clip-rule="evenodd" d="M1016 192H1012V196H1008V200H1012V196H1016V192Z" fill="#CEF9CB"/>
<path fill-rule="evenodd" clip-rule="evenodd" d="M1064 0H1060V4H1056V8H1060V4H1064V0Z" fill="#CEF9CB"/>
<path fill-rule="evenodd" clip-rule="evenodd" d="M1064 48H1060V52H1056V56H1060V52H1064V48Z" fill="#CEF9CB"/>
<path fill-rule="evenodd" clip-rule="evenodd" d="M1064 96H1060V100H1056V104H1060V100H1064V96Z" fill="#CEF9CB"/>
<path fill-rule="evenodd" clip-rule="evenodd" d="M1064 144H1060V148H1056V152H1060V148H1064V144Z" fill="#CEF9CB"/>
<path fill-rule="evenodd" clip-rule="evenodd" d="M1064 192H1060V196H1056V200H1060V196H1064V192Z" fill="#CEF9CB"/>
<path fill-rule="evenodd" clip-rule="evenodd" d="M1112 0H1108V4H1104V8H1108V4H1112V0Z" fill="#CEF9CB"/>
<path fill-rule="evenodd" clip-rule="evenodd" d="M1112 48H1108V52H1104V56H1108V52H1112V48Z" fill="#CEF9CB"/>
<path fill-rule="evenodd" clip-rule="evenodd" d="M1112 96H1108V100H1104V104H1108V100H1112V96Z" fill="#CEF9CB"/>
<path fill-rule="evenodd" clip-rule="evenodd" d="M1112 144H1108V148H1104V152H1108V148H1112V144Z" fill="#CEF9CB"/>
<path fill-rule="evenodd" clip-rule="evenodd" d="M1112 192H1108V196H1104V200H1108V196H1112V192Z" fill="#CEF9CB"/>
<path fill-rule="evenodd" clip-rule="evenodd" d="M1160 0H1156V4H1152V8H1156V4H1160V0Z" fill="#CEF9CB"/>
<path fill-rule="evenodd" clip-rule="evenodd" d="M1160 48H1156V52H1152V56H1156V52H1160V48Z" fill="#CEF9CB"/>
<path fill-rule="evenodd" clip-rule="evenodd" d="M1160 96H1156V100H1152V104H1156V100H1160V96Z" fill="#CEF9CB"/>
<path fill-rule="evenodd" clip-rule="evenodd" d="M1160 144H1156V148H1152V152H1156V148H1160V144Z" fill="#CEF9CB"/>
<path fill-rule="evenodd" clip-rule="evenodd" d="M1160 192H1156V196H1152V200H1156V196H1160V192Z" fill="#CEF9CB"/>
<path fill-rule="evenodd" clip-rule="evenodd" d="M1208 0H1204V4H1200V8H1204V4H1208V0Z" fill="#CEF9CB"/>
<path fill-rule="evenodd" clip-rule="evenodd" d="M1208 48H1204V52H1200V56H1204V52H1208V48Z" fill="#CEF9CB"/>
<path fill-rule="evenodd" clip-rule="evenodd" d="M1208 96H1204V100H1200V104H1204V100H1208V96Z" fill="#CEF9CB"/>
<path fill-rule="evenodd" clip-rule="evenodd" d="M1208 144H1204V148H1200V152H1204V148H1208V144Z" fill="#CEF9CB"/>
<path fill-rule="evenodd" clip-rule="evenodd" d="M1208 192H1204V196H1200V200H1204V196H1208V192Z" fill="#CEF9CB"/>
</svg>
