<svg xmlns:xlink="http://www.w3.org/1999/xlink" width="113" height="113" viewBox="0 0 113 113" fill="none" xmlns="http://www.w3.org/2000/svg"><title id="inline-marketing/logos/glossier-title">Glossier logo</title>
<path d="M24.8614 51.9181C24.1885 48.4685 21.8776 45.9671 17.7087 45.9291H17.5267C12.7697 45.9587 9.23998 48.3457 7.36904 51.9181C6.33541 53.9353 5.80818 56.1738 5.83286 58.4402C5.83286 63.0239 8.37224 65.9101 11.6269 66.7186C12.2582 66.8751 12.9064 66.9532 13.5568 66.9512C14.269 66.9592 14.9796 66.8811 15.673 66.7186C16.9555 66.4292 18.1025 65.7147 18.9277 64.6912V66.5111C18.9254 66.538 18.9254 66.565 18.9277 66.5918C18.9437 66.6275 18.9691 66.6581 19.0011 66.6804C19.0332 66.7028 19.0707 66.716 19.1097 66.7187H21.9243C21.9583 66.7149 21.9914 66.7048 22.0217 66.6889C22.0687 66.6591 22.1022 66.612 22.1148 66.5578L24.0574 56.6201C24.0594 56.602 24.0594 56.5837 24.0574 56.5651C24.0574 56.5374 24.0519 56.5098 24.0413 56.4841C24.0307 56.4585 24.0151 56.4351 23.9955 56.4155C23.9758 56.3958 23.9525 56.3802 23.9268 56.3696C23.9011 56.3589 23.8736 56.3535 23.8458 56.3535H16.782C16.7342 56.3519 16.6873 56.3666 16.6489 56.395C16.6105 56.4235 16.5828 56.4641 16.5704 56.5102L16.0372 59.2017V59.2402C16.0326 59.2682 16.0326 59.2967 16.0372 59.3248C16.0533 59.3629 16.0805 59.3953 16.1152 59.4179C16.1499 59.4405 16.1905 59.4522 16.2319 59.4516H19.7955C19.0294 61.5678 17.2561 63.4175 14.4203 63.4175C11.5847 63.4175 9.79858 61.3731 9.79858 57.8816C9.76081 55.7234 10.4662 53.6179 11.7964 51.9181C12.4066 51.1484 13.1832 50.527 14.0679 50.1003C14.9526 49.6737 15.9225 49.4529 16.9047 49.4546C18.8812 49.4546 20.0325 50.3562 20.8027 51.9181C21.0017 52.3283 21.17 52.7526 21.3063 53.1877C21.3222 53.2263 21.3492 53.2594 21.3838 53.2827C21.4184 53.306 21.4592 53.3185 21.5009 53.3187H21.5603L24.7557 52.4723C24.7771 52.4683 24.7974 52.4597 24.815 52.447C24.8462 52.428 24.8719 52.4013 24.8897 52.3694C24.9075 52.3375 24.9168 52.3016 24.9166 52.2651V52.2314C24.9166 52.1296 24.8785 52.0238 24.8573 51.9221M32.6871 46.1408C32.6871 46.113 32.6816 46.0854 32.671 46.0598C32.6604 46.0341 32.6448 46.0107 32.6252 45.9911C32.6055 45.9714 32.5822 45.9558 32.5565 45.9452C32.5308 45.9345 32.5033 45.929 32.4755 45.929H29.2335C29.1836 45.9295 29.1354 45.9476 29.0975 45.9801C29.0596 46.0126 29.0343 46.0574 29.0262 46.1067L27.9003 51.918L25.0859 66.4601V66.5068C25.0795 66.5332 25.0795 66.5609 25.0859 66.5875C25.1184 66.6659 25.195 66.7181 25.2806 66.7185H28.5183C28.5655 66.7198 28.6118 66.705 28.6495 66.6765C28.6872 66.6481 28.7141 66.6076 28.7257 66.5618L31.5571 51.9181L32.6701 46.1746V46.1408M42.8109 51.9181C42.1814 51.7596 41.5344 51.6813 40.8852 51.6848C40.1086 51.6755 39.3334 51.7538 38.5744 51.9181C37.1545 52.2583 35.8593 52.9917 34.8372 54.0343C33.0764 55.7272 32.2978 57.9111 32.2978 60.7001C32.2978 63.5952 33.9694 65.9819 36.8306 66.7186C37.4615 66.877 38.11 66.9552 38.7605 66.9512C39.5526 66.9659 40.3438 66.8878 41.1178 66.7186C42.5365 66.3786 43.8304 65.6451 44.8507 64.6024C46.6115 62.9095 47.39 60.7301 47.39 57.9405C47.39 55.041 45.697 52.65 42.8572 51.9181M42.3621 62.2534C41.9888 62.7629 41.497 63.1737 40.9291 63.4502C40.3613 63.7268 39.7346 63.8608 39.1033 63.8406C37.3721 63.8406 36.2253 62.4311 36.2253 60.1413C36.2253 58.5542 36.5765 57.3226 37.3128 56.3832C37.6884 55.8775 38.1813 55.4708 38.749 55.1979C39.3168 54.9251 39.9423 54.7944 40.5718 54.817C42.3028 54.817 43.4498 56.2264 43.4498 58.5162C43.4498 60.1035 43.0942 61.335 42.362 62.2746M59.5244 54.0464C59.0295 53.0819 57.9119 52.2946 56.6169 51.9303C56.0888 51.7763 55.5416 51.6979 54.9915 51.6976C54.3576 51.6925 53.7258 51.7708 53.1123 51.9303C51.116 52.3643 49.7257 54.177 49.8238 56.218C49.8238 58.186 51.1188 59.3329 52.85 60.1536C54.581 60.9749 55.3894 61.4746 55.3894 62.3252C55.3894 63.3833 54.5049 63.8529 53.5102 63.8529C52.1094 63.8529 51.1104 63.0063 50.6916 61.5466C50.6762 61.5049 50.6486 61.4688 50.6123 61.4431C50.576 61.4174 50.5328 61.4033 50.4884 61.4027C50.4618 61.3985 50.4347 61.3985 50.4081 61.4027L47.6821 62.5369C47.6434 62.5527 47.6103 62.5797 47.587 62.6143C47.5638 62.649 47.5513 62.6898 47.5513 62.7315V62.7649C47.7773 63.6985 48.2464 64.5557 48.9109 65.2493C49.5755 65.9429 50.4118 66.4482 51.3349 66.7138C51.9067 66.8724 52.4978 66.9508 53.0912 66.9469C53.7907 66.9524 54.4884 66.8742 55.1693 66.7138C57.4126 66.1596 58.906 64.5976 58.906 61.8086C58.906 59.756 57.3785 58.7575 55.8548 58.0506C54.856 57.5803 53.3154 57.1406 53.3154 56.1121C53.3074 55.3872 53.8882 54.7937 54.6127 54.7854C54.6601 54.7845 54.7076 54.7869 54.7547 54.7911C55.1764 54.7913 55.5918 54.893 55.966 55.0875C56.3401 55.282 56.662 55.5637 56.9045 55.9087C56.9244 55.9348 56.9499 55.9559 56.9793 55.9706C57.0086 55.9852 57.0409 55.9929 57.0737 55.9931C57.1126 55.9922 57.1501 55.982 57.1841 55.964L59.4651 54.3217C59.5042 54.2929 59.5314 54.2507 59.5415 54.2032C59.5517 54.1557 59.5442 54.1062 59.5204 54.0638M68.713 51.9181C68.1848 51.7642 67.6375 51.6857 67.0874 51.6848C66.4523 51.68 65.8193 51.7585 65.2045 51.9181C63.2094 52.3538 61.8212 54.1659 61.9202 56.205C61.9202 58.1732 63.19 59.3204 64.9459 60.1413C66.6178 60.9329 67.4855 61.4619 67.4855 62.3124C67.4855 63.3705 66.6056 63.8405 65.6061 63.8405C64.2055 63.8405 63.2021 62.994 62.7831 61.525C62.7684 61.4853 62.742 61.451 62.7073 61.4268C62.6726 61.4025 62.6313 61.3895 62.589 61.3894C62.5608 61.3837 62.5318 61.3837 62.5036 61.3894L59.7826 62.5199C59.7444 62.536 59.7119 62.5631 59.6893 62.5978C59.6667 62.6325 59.655 62.6732 59.6558 62.7146C59.6535 62.7285 59.6535 62.7427 59.6558 62.7567C59.8828 63.6883 60.3519 64.5434 61.0156 65.2354C61.6793 65.9274 62.5141 66.4317 63.4354 66.6973C64.009 66.8551 64.6014 66.9333 65.1962 66.9299C65.8942 66.9359 66.5904 66.8578 67.2697 66.6973C69.5127 66.1427 71.011 64.5811 71.011 61.7921C71.011 59.7391 69.483 58.7401 67.9551 58.0332C66.9561 57.5638 65.416 57.1237 65.416 56.0947C65.4077 55.3706 65.989 54.7763 66.7128 54.7684C66.7603 54.7678 66.8077 54.7699 66.8549 54.7747C67.2755 54.7749 67.6898 54.8761 68.0632 55.0697C68.4365 55.2633 68.7579 55.5437 69.0003 55.8873C69.0198 55.9153 69.0459 55.938 69.0762 55.9536C69.1066 55.9691 69.1403 55.977 69.1744 55.9764C69.2127 55.9749 69.2503 55.9648 69.2842 55.9468L71.591 54.3046C71.6135 54.2834 71.6314 54.2578 71.6438 54.2295C71.6561 54.2012 71.6627 54.1707 71.663 54.1398C71.663 54.1076 71.6556 54.0753 71.6416 54.0462C71.1467 53.0776 70.0295 52.2898 68.734 51.9301M78.2016 51.9181H74.9765C74.9309 51.9188 74.8867 51.9339 74.8502 51.9612C74.8138 51.9885 74.7868 52.0266 74.7733 52.0701L71.9803 66.4602C71.9777 66.4757 71.9777 66.4915 71.9803 66.507C71.9759 66.5337 71.9759 66.5609 71.9803 66.5877C71.9967 66.6259 72.0238 66.6586 72.0582 66.6818C72.0927 66.705 72.1332 66.7178 72.1748 66.7187H75.3999C75.4383 66.7174 75.476 66.7072 75.5098 66.6889C75.5568 66.6606 75.5905 66.6149 75.6032 66.562L78.4049 52.1462C78.4037 52.0904 78.3811 52.0372 78.3416 51.9978C78.3022 51.9583 78.2491 51.9356 78.1933 51.9344M89.6246 51.9181C89.0126 51.7585 88.3824 51.68 87.7499 51.6848C87.0381 51.6836 86.3283 51.7618 85.6338 51.9181C81.6883 52.819 78.9106 56.357 78.9717 60.4038C78.9717 63.7898 80.784 66.0246 83.4374 66.7185C84.0495 66.8771 84.6797 66.9552 85.312 66.9511C86.0511 66.9581 86.7875 66.88 87.5083 66.7185C89.57 66.2401 91.0718 65.0256 92.469 62.9981C92.4972 62.9503 92.5055 62.8934 92.492 62.8395C92.4785 62.7857 92.4444 62.7394 92.397 62.7105L89.8579 61.394C89.8315 61.3806 89.8024 61.3734 89.7728 61.3729C89.7419 61.3738 89.7115 61.3814 89.6837 61.3953C89.656 61.4091 89.6317 61.4289 89.6124 61.4532C88.5502 62.9813 87.3353 63.8406 85.6552 63.8406C83.7169 63.8406 82.6586 62.4904 82.6586 60.9622V60.4928H93.1296C93.168 60.4914 93.2056 60.4812 93.2395 60.463C93.2832 60.4355 93.316 60.3937 93.3323 60.3447C93.5743 59.4547 93.6982 58.5367 93.7008 57.6144C93.7008 54.8807 92.3037 52.6289 89.642 51.9181M83.3439 57.6143C83.9645 55.9651 85.5185 54.8525 87.2803 54.7958C89.1296 54.7958 89.9803 55.7652 90.0989 57.6143H83.3439ZM105.535 55.2403C105.565 55.2577 105.6 55.2664 105.636 55.266C105.675 55.2669 105.712 55.256 105.746 55.236C105.784 55.2116 105.813 55.1761 105.831 55.1345L106.91 52.2776C106.914 52.2496 106.914 52.221 106.91 52.1929C106.909 52.1513 106.896 52.1109 106.873 52.0764C106.85 52.0418 106.817 52.0147 106.779 51.9982L106.58 51.9262C106.092 51.754 105.577 51.675 105.06 51.6935C104.524 51.6912 103.99 51.7696 103.477 51.9262C102.256 52.3289 101.189 53.0991 100.422 54.1313L100.806 52.1887C100.816 52.1577 100.818 52.1247 100.812 52.0927C100.806 52.0607 100.793 52.0305 100.773 52.0048C100.753 51.979 100.728 51.9585 100.698 51.9448C100.668 51.9311 100.636 51.9247 100.604 51.9262H97.3659C97.3165 51.9264 97.2687 51.9439 97.2308 51.9757C97.1929 52.0074 97.1672 52.0514 97.1583 52.1L94.3609 66.4899C94.3588 66.5011 94.3588 66.5127 94.3609 66.5239C94.3544 66.5502 94.3544 66.5777 94.3609 66.604C94.3767 66.6427 94.4036 66.6758 94.4382 66.6992C94.4729 66.7226 94.5136 66.7352 94.5554 66.7355H97.8315C97.8699 66.7341 97.9075 66.724 97.9414 66.7058C97.9885 66.6759 98.0221 66.6287 98.0347 66.5743L99.0332 61.4956C99.9137 56.84 102.419 54.9778 104.26 54.9778C104.699 54.9692 105.134 55.065 105.53 55.2574M77.2366 46.1575C76.0846 46.1575 75.1505 47.0917 75.1505 48.2445C75.1505 49.3967 76.0846 50.3309 77.2366 50.3309C78.3891 50.3309 79.3231 49.3968 79.3231 48.2445C79.3472 47.1153 78.4511 46.1811 77.3221 46.1575C77.2936 46.1571 77.2651 46.1571 77.2366 46.1575ZM105.725 62.8329C104.568 62.8379 103.633 63.7798 103.639 64.9367C103.64 65.295 103.733 65.647 103.91 65.959C104.086 66.2709 104.339 66.5325 104.645 66.7186C104.974 66.9045 105.345 67.0021 105.722 67.0021C106.1 67.0021 106.471 66.9045 106.799 66.7186C107.788 66.1175 108.103 64.8287 107.502 63.8402C107.316 63.5347 107.055 63.2818 106.744 63.1055C106.433 62.9292 106.083 62.8354 105.725 62.8329Z" fill="#5C5F62"></path>
</svg>