<svg xmlns:xlink="http://www.w3.org/1999/xlink" width="113" height="113" viewBox="0 0 113 113" fill="none" xmlns="http://www.w3.org/2000/svg"><title id="inline-marketing/logos/klaviyo-2-title">Klaviyo logo</title>
<path d="M64.163 46.7873C64.7659 46.7873 65.3494 46.5539 65.7773 46.1455C66.2052 45.7371 66.458 45.1536 66.4774 44.5701C66.4774 43.9672 66.2246 43.3837 65.7967 42.9558C65.3688 42.528 64.7854 42.2751 64.1824 42.2751C63.5795 42.2946 63.0155 42.528 62.5876 42.9753C62.1597 43.4032 61.9263 43.9866 61.9458 44.5701C61.9458 45.1536 62.1792 45.7176 62.6071 46.1455C63.0155 46.5345 63.5795 46.7679 64.163 46.7873ZM79.8391 48.9268H85.4016V49.3741C85.0904 49.4324 84.7986 49.5297 84.5263 49.6853C84.0207 49.9187 83.0093 51.0662 82.2119 52.9916C80.8893 56.3175 79.5084 60.2656 78.0497 64.7779L77.5052 66.4894C77.2718 67.2674 77.0578 67.7731 76.9606 68.0648C76.8633 68.376 76.7272 68.8428 76.4938 69.4068C76.3577 69.8347 76.1826 70.2626 75.9687 70.6515C75.6964 71.1572 75.1907 72.188 74.7823 72.4992C74.1404 73.0438 73.1874 73.6467 72.001 73.5495C69.6866 73.5495 67.9556 71.8379 67.9361 69.8152C67.9361 68.4343 68.8114 67.5202 70.1339 67.5202C71.0869 67.5202 71.9232 68.0259 71.9232 69.0956C71.9232 69.8736 71.1453 70.671 71.1453 71.0794C71.1453 72.1297 71.7482 72.6159 72.9346 72.6159C73.8876 72.6159 74.6656 72.013 75.2491 70.8071C76.027 69.4262 76.1048 67.9092 75.4435 66.2171L70.5618 53.3806C69.4337 50.4243 68.5974 49.4519 67.5472 49.3352V48.8879H75.2491V49.3352C74.3349 49.4324 73.8682 49.977 73.8682 50.9495C73.8682 51.6496 74.1404 52.7388 74.6461 54.1197L75.5602 56.6092C76.6105 59.3126 77.4663 61.666 77.8941 63.1441C78.8861 60.0712 79.8002 57.3872 80.6754 55.0338C81.3172 53.2834 81.6284 52.0386 81.6284 51.2996C81.6284 49.977 80.9088 49.3741 79.8391 49.3741V48.9268ZM26.2954 65.3224C25.3034 65.1474 24.4671 64.2722 24.4671 62.4245V40.0968L18.8657 41.3027V41.7694C19.8188 41.6722 20.7718 42.5085 20.7718 44.2978V62.4245C20.7718 64.1749 19.8188 65.1863 18.8657 65.3224C18.7685 65.3419 18.6907 65.3419 18.5935 65.3613C18.1072 65.4002 17.621 65.303 17.1737 65.1085C16.4151 64.7779 15.7928 64.1944 15.2676 63.3386L12.6809 59.2348C12.1363 58.3596 11.3194 57.6984 10.3664 57.3288C9.41342 56.9593 8.36317 56.9009 7.37126 57.1732L10.2886 53.9641C12.4864 51.5329 14.5286 49.9965 16.454 49.3546V48.9073H10.0358V49.3546C11.689 49.9965 11.5917 51.4163 9.68571 53.6335L5.60138 58.3791V40.0968L0 41.3027V41.7694C0.953012 41.7694 1.90602 42.703 1.90602 44.3562V62.4051C1.90602 64.4083 0.972461 65.1863 0 65.3224V65.7698H7.4296V65.3224C6.2043 65.1474 5.60138 64.2138 5.60138 62.4245V59.0987L7.19621 57.3483L11.0472 63.6498C11.9613 65.1669 12.817 65.7698 14.159 65.7698H27.0733V65.4197C27.0928 65.4197 26.7232 65.4002 26.2954 65.3224ZM41.6991 63.2025V55.6562C41.6213 50.7355 39.5403 48.4794 34.7752 48.4794C33.2582 48.46 31.78 48.9656 30.5742 49.8992C29.31 50.8522 28.7071 51.9219 28.7071 53.1667C28.7071 54.3725 29.3878 55.2866 30.4964 55.2866C31.6828 55.2866 32.5386 54.6059 32.5386 53.6724C32.5386 52.9722 32.0718 51.9803 32.0718 51.319C32.0718 50.1132 32.9859 49.0629 34.5807 49.0629C36.6229 49.0629 38.0816 50.5799 38.0816 53.9446V55.9674L36.3895 56.3758C35.5143 56.5508 34.7558 56.7259 34.1917 56.8815C33.6083 57.0565 32.8692 57.2899 31.994 57.6206C30.2241 58.3013 29.2905 58.9431 28.4737 60.149C28.0652 60.7324 27.8707 61.4326 27.8707 62.1328C27.8707 64.9335 29.8351 66.2171 32.5775 66.2171C34.7558 66.2171 37.0508 65.0696 38.101 62.9107C38.1205 63.5915 38.2761 64.2527 38.5873 64.8751C39.7348 67.1896 43.5468 65.8281 43.5468 65.8281V65.3808C41.8353 65.6336 41.6991 63.6693 41.6991 63.2025ZM38.0816 60.8686C38.0816 61.9772 37.6731 62.8913 36.8563 63.5331C36.0783 64.1749 35.2614 64.5056 34.4057 64.5056C32.7525 64.5056 31.6633 63.4359 31.6633 61.4326C31.6633 60.499 32.1885 59.6238 32.6163 59.1181C32.9664 58.7681 33.3554 58.4763 33.8028 58.2818C34.3862 57.9706 34.6585 57.815 35.067 57.64L36.6229 57.076C37.4009 56.7648 37.8676 56.6092 38.0816 56.5119V60.8686ZM113 48.9268H99.8134V40.0968H113L110.238 44.5118L113 48.9268ZM86.1795 63.6109C84.5458 61.9383 83.6317 59.6822 83.6706 57.3288C83.6511 56.1813 83.8651 55.0338 84.2929 53.9641C84.7208 52.8944 85.3626 51.9219 86.1795 51.0856C87.8521 49.3352 89.8749 48.46 92.2671 48.46C94.601 48.46 96.6432 49.3352 98.3158 51.0856C99.1327 51.9025 99.794 52.8749 100.222 53.9446C100.669 55.0144 100.883 56.1619 100.864 57.3288C100.883 58.4958 100.669 59.6433 100.222 60.713C99.7745 61.7827 99.1327 62.7746 98.3158 63.5915C96.6432 65.303 94.6205 66.1977 92.2671 66.1977C89.8943 66.2171 87.8521 65.3419 86.1795 63.6109ZM95.3207 51.3774C94.6594 50.0743 93.7647 49.3157 92.7339 49.1018C90.6334 48.6739 88.7857 50.8328 88.0855 54.2364C87.7938 55.7729 87.716 57.3288 87.8716 58.8653C88.0272 60.4212 88.4551 61.9188 89.1552 63.3192C89.836 64.6223 90.7112 65.3808 91.742 65.5947C93.8425 66.0226 95.7485 63.786 96.4487 60.3434C97.0322 57.465 96.7404 53.9641 95.3207 51.3774Z" fill="#5C5F62"></path>
<path d="M66.1282 62.4245V48.9267H54.1864V49.3352C55.7812 49.5686 56.5397 50.7744 55.8201 52.6999C52.0858 62.7746 52.3192 62.3273 52.0858 63.1247C51.8524 62.3467 51.3079 60.4407 50.4327 58.0484C49.5574 55.6562 48.974 54.0808 48.7406 53.3612C47.8265 50.5605 48.1377 49.5297 49.6158 49.3546V48.9073H41.875V49.3546C43.0225 49.588 44.0533 50.9106 44.8896 53.2639L46.076 56.3369C47.3791 59.6433 48.9156 64.2138 49.4213 65.7698H51.9886C52.8249 63.3775 56.1313 53.8085 56.5786 52.836C57.0648 51.7274 57.6094 50.8911 58.2123 50.3076C58.5041 49.9964 58.8542 49.7436 59.2626 49.588C59.6516 49.4324 60.0795 49.3352 60.5074 49.3546C60.5074 49.3546 62.3745 49.3546 62.3745 51.1439V62.444C62.3745 64.3305 61.4604 65.2057 60.5074 65.3419V65.7892H67.8981V65.3419C66.9451 65.1863 66.1282 64.3111 66.1282 62.4245Z" fill="#5C5F62"></path>
</svg>