<svg xmlns:xlink="http://www.w3.org/1999/xlink" width="113" height="113" viewBox="0 0 113 113" fill="none" xmlns="http://www.w3.org/2000/svg"><title id="inline-marketing/logos/mattel-title">Mattel logo</title>
<path fill-rule="evenodd" clip-rule="evenodd" d="M12.9023 38.6203L7.81392 39.9334L11.0147 43.9725L5.92629 45.8073L9.96535 49.7937L4.87695 51.9451L9.43776 55.6676L4.87695 58.6046L7.81392 59.9705L7.55012 58.8684L12.8965 57.5552L21.4436 70.6104L22.2291 54.882L27.3175 53.5689L32.8749 73.2835L28.8886 74.6436L25.1661 61.0081L24.3278 75.687L20.8691 76.7364L12.8965 64.203L16.619 77.8385L14.9951 78.3602L12.8965 83.1848L17.9321 83.4486L16.361 88.5312L21.9712 87.9566L20.6053 93.0451L25.6937 92.2595L25.1719 97.2952L30.5183 95.7241V101.018L35.2901 98.3973L36.0757 103.955L40.6365 100.754L42.2603 106.153L46.7683 102.641L48.656 107.73L52.3785 103.433L55.3154 107.73L58.5162 103.169L61.717 107.208L64.6539 102.647L68.1126 106.159L70.2641 101.018L74.7721 104.265L75.8214 99.1769L80.646 101.586L80.9099 96.24L86.2562 98.1276L85.4707 93.0392L90.817 94.3523L90.2425 88.5312L95.5888 89.5805L94.0178 84.2341L99.6279 84.7559L96.9547 79.4095L102.565 79.1457L99.8917 73.7994L104.927 72.7501L101.469 68.242L106.815 66.3544L102.829 62.3681L108.122 59.6949L103.087 56.4942L108.122 53.5572L106.809 53.0355L94.8033 56.4942L89.1932 36.5157L92.6519 35.6774L97.2127 51.9334L102.823 50.6202L106.809 46.5812L101.463 44.4825L105.185 40.7072L100.15 39.3941L103.087 35.144L97.4765 34.5695L100.15 29.5338H94.5395L96.3744 24.1875L90.817 24.973L92.1301 19.6267L86.7838 20.9926V15.6463L82.0119 17.2701L81.7482 11.9238L76.9235 14.5969L76.0853 8.98679L71.841 12.1876L70.0061 7.09915L65.7091 10.5579L63.8743 5.26428L59.8352 10.2999L57.162 5.26428L54.2251 9.77232L50.7664 5.78602L48.0932 10.5579L44.6345 6.57156L42.7996 11.9179L38.2388 8.45919L37.4533 13.8055L32.3649 10.8686V16.4259L26.7547 14.5911L27.0185 20.2012L21.9829 18.5774L22.7684 23.9237L17.1583 23.6599L18.7821 28.4317L13.4358 28.6955L15.5872 33.2563L9.97708 34.3057L12.914 38.6085L12.9023 38.6203ZM86.7838 37.0492L87.8859 40.4551L76.3491 43.3921L77.9729 48.2167L87.88 45.5435L88.6656 48.4805L78.5474 51.6813L80.1185 57.0276L91.3387 53.5689L92.1243 57.0276L77.4453 61.2719L71.8352 41.2934L86.7779 37.0492H86.7838ZM43.3155 52.4668L42.5299 49.266L70.5279 41.5572L71.5772 44.758L65.4395 46.3291L70.0003 63.1595L66.225 64.2088L61.717 47.695L53.1699 49.7937L57.7307 66.3603L53.9554 67.6734L49.4474 50.8957L43.3155 52.4668ZM45.4669 65.5747L37.1836 67.6734L36.9198 72.2342L33.4611 73.2835L35.296 51.6813L39.593 50.3681L51.5988 68.2479L47.8235 69.2972L45.4611 65.5747H45.4669ZM37.9691 54.6182L37.4474 64.2147L43.5793 62.6436L37.9691 54.6241V54.6182ZM5.93215 65.053L9.44362 66.3661L8.34152 62.6436L5.92629 65.053H5.93215ZM11.8061 74.3856L9.44948 77.5864L12.6502 77.3226L11.812 74.3856H11.8061ZM9.97122 68.2537L7.29805 71.4545L11.0206 71.9763L9.97122 68.2537Z" fill="#5C5F62"></path>
</svg>