<svg xmlns:xlink="http://www.w3.org/1999/xlink" width="24" height="24" viewBox="0 0 24 24" fill="none" xmlns="http://www.w3.org/2000/svg" class="_2ak-2" focusable="false" aria-hidden="true"><path fill-rule="evenodd" clip-rule="evenodd" d="M11.3137 11.3137C9.75156 12.8758 7.2189 12.8758 5.6568 11.3137C4.09471 9.75161 4.09471 7.21895 5.6568 5.65685C7.2189 4.09476 9.75156 4.09476 11.3137 5.65685C12.8758 7.21895 12.8758 9.75161 11.3137 11.3137ZM13.3763 11.9622C15.0462 9.61895 14.8301 6.34487 12.7279 4.24264C10.3847 1.89949 6.58573 1.89949 4.24259 4.24264C1.89944 6.58579 1.89944 10.3848 4.24259 12.7279C6.34481 14.8301 9.6189 15.0463 11.9621 13.3764L19.0918 20.5061C19.4824 20.8966 20.1155 20.8966 20.506 20.5061C20.8966 20.1156 20.8966 19.4824 20.506 19.0919L13.3763 11.9622Z" stroke="#6D7175" fill="#6D7175"></path></svg>