<svg xmlns:xlink="http://www.w3.org/1999/xlink" width="112" height="113" viewBox="0 0 112 113" fill="none" xmlns="http://www.w3.org/2000/svg"><title id="inline-marketing/logos/spanx-title">Spanx logo</title>
<path d="M13.8672 64.453C12.4293 65.379 10.5242 65.8407 8.14621 65.8407C5.76826 65.8407 4.03 65.4333 2.63104 64.6187C1.23765 63.804 0.428309 62.7504 0.205811 61.4551V61.3519L0 60.5101C0.292029 60.4286 0.645245 60.377 1.05965 60.358C1.48796 60.358 1.88567 60.434 2.24445 60.5861C2.36682 61.5474 2.90916 62.3349 3.88816 62.9459C4.86158 63.5596 6.21604 63.8665 7.94875 63.8665C9.40333 63.8665 10.5826 63.6139 11.4809 63.1088C12.3848 62.6065 12.8381 61.9167 12.8381 61.0423C12.8381 60.2684 12.4627 59.6085 11.7062 59.06C10.9525 58.5114 9.25592 57.9547 6.61098 57.379C4.4444 56.8251 2.91751 56.1598 2.02195 55.3777C1.12918 54.5983 0.681401 53.6126 0.684182 52.4232C0.689744 50.9324 1.3628 49.7402 2.70613 48.8495C4.04947 47.9616 5.82945 47.5189 8.03496 47.5189C10.043 47.5189 11.67 47.9018 12.9132 48.6676C14.1537 49.4279 14.8851 50.4028 15.1076 51.5759L15.1827 52.225C14.874 52.3281 14.5236 52.3825 14.1259 52.3987C13.7281 52.3987 13.3527 52.358 12.9911 52.2738C12.8576 51.3913 12.3514 50.7043 11.4892 50.2209C10.6215 49.7348 9.48676 49.4931 8.07946 49.4931C6.78897 49.4931 5.7627 49.7076 4.98952 50.1313C4.21634 50.5603 3.82697 51.1415 3.82697 51.8774C3.82419 52.6784 4.28587 53.3057 5.21202 53.7565C6.13539 54.2073 7.53156 54.6445 9.40055 55.06C11.6172 55.6004 13.2776 56.2928 14.3734 57.1455C15.4775 57.9955 16.0226 59.1604 16.0199 60.6431C16.0199 62.2589 15.2995 63.5298 13.8616 64.4557" fill="#5C5F62"></path>
<path d="M26.3795 63.7144C26.3768 64.3199 26.3962 64.6974 26.4379 64.8359C26.4824 64.9798 26.552 65.0504 26.6577 65.0504H27.2779V65.3573H22.5776V65.0504H22.9642C23.017 65.0504 23.056 65.0423 23.0921 65.026C23.1255 65.0097 23.1394 64.9744 23.1422 64.9228L23.195 49.713C23.2006 49.1075 23.1728 48.73 23.1227 48.5779C23.0754 48.4286 22.9976 48.3498 22.8919 48.3498H22.3301V48.043H32.1645C34.1225 48.043 35.6688 48.5019 36.8008 49.417C37.9328 50.3295 38.4946 51.5813 38.4862 53.1781C38.4834 54.8047 37.8354 56.081 36.5505 57.0015C35.2683 57.9275 33.5495 58.3865 31.3997 58.3865H26.3962L26.3768 63.7116L26.3795 63.7144ZM30.7349 56.5046C32.12 56.5046 33.2158 56.2303 34.0307 55.6764C34.8484 55.1251 35.2572 54.343 35.26 53.3383C35.26 52.2656 34.8734 51.4428 34.0891 50.8726C33.3048 50.305 32.184 50.0199 30.7322 50.0199C29.92 50.0199 29.1608 50.0307 28.4599 50.0552C27.7618 50.0796 27.0832 50.1367 26.4268 50.2208L26.4018 56.5046H30.7322H30.7349Z" fill="#5C5F62"></path>
<path d="M60.7172 65.3791H55.864V65.0695H56.3785C56.4481 65.0695 56.4814 65.0451 56.4814 64.9962L56.4564 64.8713L54.4039 60.2087H46.024L44.1133 64.4178C44.0438 64.635 44.0076 64.8061 44.0076 64.9229C44.0076 65.0233 44.0327 65.0722 44.0855 65.0722H44.7558V65.3818H40.876V65.0722C41.1207 65.0722 41.2598 65.0641 41.3043 65.0478C41.3488 65.0315 41.4322 64.8794 41.5546 64.5943L49.4394 48.0431C50.093 47.9752 50.6214 47.9317 51.0358 47.9182L51.4001 47.9426C51.8451 47.9589 52.2484 48.0023 52.61 48.0675C52.61 48.1191 52.5571 48.1707 52.4542 48.2196C52.3986 48.2386 52.3763 48.2793 52.3763 48.3445L52.4014 48.4477L59.8718 64.6758C59.9913 64.9283 60.1082 65.0559 60.2194 65.0641C60.3334 65.0722 60.5003 65.0749 60.7228 65.0749V65.3845L60.7172 65.3791ZM50.3377 50.7396L46.8695 58.3214H53.6307L50.3377 50.7396Z" fill="#5C5F62"></path>
<path d="M80.9341 49.6397C80.9369 49.0423 80.9091 48.673 80.8507 48.5291C80.795 48.3824 80.7144 48.3091 80.6087 48.3091H80.0191V48.0023H83.7988V48.3091H83.4372C83.3538 48.3091 83.2954 48.3145 83.2731 48.3254C83.2453 48.3363 83.2342 48.3661 83.2342 48.4096L83.1146 65.3681C82.7169 65.4496 82.3052 65.4931 81.8908 65.4931C81.4931 65.4768 81.1149 65.4252 80.7477 65.341L68.8914 51.8122L68.8024 63.6519C68.7996 64.2738 68.8218 64.6594 68.8747 64.8087C68.9248 64.9608 68.9998 65.0368 69.1055 65.0368H69.8231V65.341H65.9071V65.0368H66.3215C66.3911 65.0368 66.4411 65.026 66.4634 65.0124C66.4912 64.9934 66.5051 64.9608 66.5051 64.9119L66.6163 49.064C66.6163 48.9255 66.5663 48.7708 66.4661 48.597C66.3632 48.4232 66.2437 48.3363 66.1074 48.3363H65.4844V48.0321H69.5561L80.8479 61.1781L80.9313 49.6424L80.9341 49.6397Z" fill="#5C5F62"></path>
<path d="M103.406 48.0458H107.448V48.3526L106.958 48.3771L106.8 48.5509L100.442 56.1462L107.4 64.7735C107.537 64.9446 107.642 65.0342 107.717 65.0396C107.795 65.0478 107.934 65.0505 108.137 65.0505L108.148 65.3574H102.956V65.0505H103.598C103.668 65.0505 103.701 65.0342 103.701 64.9989L103.676 64.9011L98.1722 58.1259C97.2293 59.1985 96.306 60.2711 95.4104 61.3329C94.5149 62.4001 93.6165 63.5054 92.721 64.6486C92.7043 64.7789 92.6959 64.8848 92.6959 64.95C92.6959 65.0152 92.7265 65.0478 92.7933 65.0478H93.4163V65.3546H89.25V65.0478H89.6533L89.8507 64.8224L96.8038 56.521L90.4181 48.6269C90.2985 48.4422 90.1928 48.3472 90.1094 48.3472H89.6644V48.0403H94.7207V48.3472C94.4092 48.3472 94.2145 48.3581 94.1255 48.3716C94.0921 48.3716 94.0782 48.3825 94.0782 48.3961L94.1032 48.4721L99.0316 54.6418C99.9077 53.6507 100.753 52.6703 101.571 51.6955C102.383 50.7206 103.19 49.7403 103.977 48.7491C104.06 48.597 104.105 48.4966 104.105 48.4477C104.105 48.3961 104.071 48.3716 104.002 48.3716L103.409 48.3472V48.0403L103.406 48.0458Z" fill="#5C5F62"></path>
<path d="M111.625 47.0355C111.861 47.2718 112 47.5841 112 47.9208C112 48.2575 111.867 48.578 111.622 48.8088C111.363 49.0532 111.038 49.1835 110.701 49.1835C110.365 49.1835 110.037 49.0532 109.789 48.8034C109.542 48.5617 109.408 48.2548 109.408 47.9181C109.408 47.5814 109.55 47.2664 109.803 47.0165C110.04 46.7776 110.351 46.6581 110.701 46.6581C111.052 46.6581 111.372 46.7884 111.625 47.0355M111.505 47.1496C111.291 46.9378 111.013 46.8237 110.704 46.8237C110.396 46.8237 110.126 46.9324 109.92 47.1387C109.703 47.3533 109.581 47.6384 109.581 47.9208C109.581 48.2032 109.7 48.4802 109.912 48.692C110.123 48.9011 110.407 49.0179 110.693 49.0179C110.999 49.0179 111.28 48.9038 111.5 48.6947C111.708 48.4938 111.825 48.2249 111.825 47.9317C111.825 47.6384 111.714 47.3505 111.505 47.1496M111.347 47.5732C111.347 47.7769 111.227 47.9154 111.013 47.9588L111.338 48.6106H111.03L110.735 48.0023H110.462V48.6106H110.19V47.1795H110.74C111.152 47.1795 111.352 47.3152 111.352 47.5732M110.465 47.356V47.8312H110.699C110.949 47.8312 111.069 47.7687 111.069 47.6004C111.069 47.432 110.949 47.356 110.693 47.356H110.462H110.465Z" fill="#5C5F62"></path>
</svg>