<svg xmlns:xlink="http://www.w3.org/1999/xlink" width="113" height="113" viewBox="0 0 113 113" fill="none" xmlns="http://www.w3.org/2000/svg"><title id="inline-marketing/logos/staples-title">Staples logo</title>
<path d="M42.1225 53.2971C40.5801 52.9678 38.9856 52.6211 38.9856 51.3906C38.9856 50.0214 40.4241 49.7268 41.6546 49.7268C42.9371 49.7268 44.2196 50.0214 45.3808 50.576L45.4848 50.628C45.5195 50.6454 45.5541 50.628 45.5715 50.5934L46.6807 48.6349C46.698 48.6003 46.6807 48.5656 46.6633 48.5483L46.542 48.4963C44.8609 47.7337 43.3011 47.3871 41.6026 47.3871C38.327 47.3871 36.2126 48.9816 36.2126 51.4426C36.2126 54.2849 38.587 55.1688 41.152 55.6888C42.7638 56.0181 44.3236 56.3474 44.3236 57.6472C44.3236 59.051 42.7638 59.3457 41.4466 59.3457C40.0428 59.3457 38.639 58.9297 37.1658 58.0978L37.1138 58.0632C37.0791 58.0458 37.0445 58.0632 37.0271 58.0805L35.8833 60.1256C35.866 60.1602 35.8833 60.1949 35.9006 60.2122L35.9526 60.2469C37.6337 61.2001 39.5229 61.7027 41.464 61.7201C45.0515 61.7201 47.114 60.2296 47.114 57.6299C47.114 54.3716 44.2543 53.7477 42.1225 53.2971ZM55.4676 59.1204C55.4503 59.0857 55.4156 59.0684 55.381 59.0857L55.2423 59.1377C54.6704 59.363 54.2718 59.4497 53.4399 59.4497C52.4693 59.4497 51.8454 58.9297 51.8454 58.1325V53.2277H55.277C55.3117 53.2277 55.3463 53.1931 55.3463 53.1584V51.1826C55.3463 51.148 55.3117 51.1133 55.277 51.1133H51.8454V48.531C51.8454 48.4963 51.8107 48.4616 51.7761 48.4616H49.263C49.2284 48.4616 49.1937 48.4963 49.1937 48.531V51.1133H47.1486C47.114 51.1133 47.0793 51.148 47.0793 51.1826V53.1757C47.0793 53.2104 47.114 53.2451 47.1486 53.2451H49.1937V58.4098C49.1937 60.4895 50.5802 61.7201 52.9026 61.7201C54.2544 61.7201 55.0344 61.4428 55.8663 61.0961L56.0222 61.0268C56.0569 61.0095 56.0742 60.9748 56.0569 60.9402L55.4676 59.1204ZM27.0097 47.6644H7.61595C5.77883 47.6644 4.375 49.1549 4.375 50.992V61.3561C4.375 61.3908 4.40966 61.4254 4.44433 61.4254H6.95736C6.99202 61.4254 7.02669 61.3908 7.02669 61.3561V50.836H27.5989V61.3561C27.5989 61.3908 27.6336 61.4254 27.6683 61.4254H30.1813C30.216 61.4254 30.2506 61.3908 30.2506 61.3561V50.992C30.2506 49.1549 28.8468 47.6644 27.0097 47.6644ZM67.2183 59.5017H66.8196C66.3344 59.5017 66.0571 59.2244 66.0571 58.7217V54.6142C66.0571 52.0665 64.6879 50.836 61.8282 50.836C60.2511 50.8187 58.7086 51.1306 57.2701 51.7892C57.2354 51.8066 57.2181 51.8412 57.2354 51.8759L57.8594 53.7997C57.8767 53.8343 57.9113 53.8517 57.946 53.8343C59.3325 53.2797 60.563 52.9851 61.4296 52.9851C62.4002 52.9851 63.4054 53.1584 63.4054 54.5102V55.0822C63.4054 55.0822 63.2494 55.0995 60.1124 55.3421C56.9755 55.5848 56.5075 57.8032 56.5075 58.6871C56.5075 60.4549 57.9114 61.7027 59.9218 61.7027C61.3256 61.7201 62.6948 61.2348 63.752 60.3162C63.9946 60.8015 64.6532 61.6334 66.473 61.6334H67.2183C67.2529 61.6334 67.2876 61.5987 67.2876 61.5641V59.571C67.3049 59.5363 67.2702 59.5017 67.2183 59.5017C67.2356 59.5017 67.2356 59.5017 67.2183 59.5017ZM63.4227 58.5311C62.2615 59.363 61.4296 59.6923 60.5804 59.6923C59.6965 59.6923 59.0899 59.2417 59.0899 58.5484C59.0899 58.2538 59.1245 57.3526 60.3897 57.1966C61.6549 57.0406 63.4227 56.8153 63.4227 56.8153V58.5311ZM101.292 55.1688C99.5931 54.8742 98.7612 54.7182 98.7612 53.921C98.7612 53.453 98.9865 52.8291 100.824 52.8291C101.95 52.8291 103.059 53.1237 104.047 53.661L104.117 53.6957C104.151 53.713 104.186 53.6957 104.203 53.6783L105.191 51.9625C105.208 51.9279 105.191 51.8932 105.174 51.8759L105.087 51.8412C103.909 51.304 102.765 50.8533 100.841 50.8533C97.8946 50.8533 96.2828 51.9972 96.2828 54.0596C96.2828 56.3994 98.4666 56.9713 100.512 57.3006C102.314 57.5952 103.042 57.8552 103.042 58.6524C103.042 59.3803 102.349 59.727 100.841 59.727C99.4718 59.727 98.0679 59.1377 97.1147 58.6524L97.0627 58.6178C97.0281 58.6004 96.9934 58.6178 96.9761 58.6524L96.0055 60.3856C95.9882 60.4202 96.0055 60.4549 96.0229 60.4722L96.0748 60.5069C97.6173 61.3041 99.2465 61.7201 100.824 61.7201C103.909 61.7201 105.468 60.6282 105.468 58.4791C105.468 56.1221 103.406 55.5501 101.292 55.1688ZM74.2548 50.836C73.0589 50.836 72.0537 51.2346 71.0831 52.0839V51.1653C71.0831 51.1306 71.0485 51.096 71.0138 51.096H68.5008C68.4661 51.096 68.4314 51.1306 68.4314 51.1653V65.7236C68.4314 65.7583 68.4661 65.7929 68.5008 65.7929H71.0138C71.0485 65.7929 71.0831 65.7583 71.0831 65.7236V60.4722C72.0017 61.2348 73.1629 61.6854 74.2548 61.6854C77.0624 61.6854 79.0209 59.4497 79.0209 56.2607C79.0209 53.2277 76.9411 50.836 74.2548 50.836ZM73.5962 59.4497C72.6776 59.4497 71.8977 59.0164 71.0831 58.0458V54.4063C71.9324 53.4877 72.7123 53.0891 73.5962 53.0891C75.2946 53.0891 76.3692 54.3369 76.3692 56.2607C76.3865 58.1671 75.26 59.4497 73.5962 59.4497ZM80.5287 47.6644H83.0417C83.0764 47.6644 83.111 47.699 83.111 47.7337V61.3734C83.111 61.4081 83.0764 61.4428 83.0417 61.4428H80.5287C80.494 61.4428 80.4594 61.4081 80.4594 61.3734V47.7337C80.4594 47.699 80.494 47.6644 80.5287 47.6644ZM93.9084 58.6351C93.8911 58.6004 93.8564 58.6004 93.8218 58.6178L93.7351 58.6698C92.8859 59.1204 92.106 59.571 90.4768 59.571C88.709 59.571 87.5132 58.5831 87.2706 56.954H94.7403C94.775 56.954 94.8097 56.9193 94.8097 56.8846V56.1567C94.8097 52.8638 92.8512 50.836 89.6969 50.836C86.664 50.836 84.5495 53.1064 84.5495 56.3474C84.5495 59.5537 86.8373 61.7027 90.2342 61.7027C91.846 61.7201 93.4405 61.2868 94.827 60.4549L94.879 60.4202C94.9137 60.4029 94.9137 60.3682 94.8963 60.3336L93.9084 58.6351ZM89.7143 52.9851C91.0834 52.9851 91.9327 53.6957 92.158 55.0648H87.2879C87.5305 53.713 88.3971 52.9851 89.7143 52.9851ZM108.328 60.1776H108.224C108.207 60.1776 108.207 60.1776 108.207 60.1949L107.687 61.0961L107.202 60.2122C107.202 60.1949 107.184 60.1949 107.184 60.1949H107.063C107.046 60.1949 107.028 60.2122 107.028 60.2296V61.4428C107.028 61.4601 107.046 61.4774 107.063 61.4774H107.219C107.236 61.4774 107.254 61.4601 107.254 61.4428V60.6802L107.652 61.4081L107.669 61.4254H107.704C107.721 61.4254 107.721 61.4254 107.721 61.4081L108.137 60.6802V61.4428C108.137 61.4601 108.155 61.4774 108.172 61.4774H108.328C108.345 61.4774 108.363 61.4601 108.363 61.4428V60.2296C108.363 60.1949 108.345 60.1776 108.328 60.1776ZM106.803 60.1776H105.867C105.85 60.1776 105.832 60.1949 105.832 60.2122V60.3509C105.832 60.3682 105.85 60.3856 105.867 60.3856H106.231V61.4254C106.231 61.4428 106.248 61.4601 106.266 61.4601H106.422C106.439 61.4601 106.456 61.4428 106.456 61.4254V60.3856H106.82C106.838 60.3856 106.855 60.3682 106.855 60.3509V60.2122C106.838 60.1776 106.82 60.1776 106.803 60.1776Z" fill="#5C5F62"></path>
</svg>